# xmcd
#
# Track frame offsets: 
#        150
#        26953
#        47290
#        76466
#        94524
#        118295
#        148327
#        160005
#        183935
#        196964
#        220168
#        243517
#
# Disc length: 3529 seconds
#
# Revision: 3
# Processed by: cddbd v1.5.2PL0 Copyright (c) Steve Scherf et al.
# Submitted via: ExactAudioCopy v0.95b4
#
DISCID=a40dc70c
DTITLE=Various Artist - Your guide to the "Northsea Jazz Festival 2007"
DYEAR=2007
DGENRE=Jazz
TTITLE0=Ketil Bjornstad - Silhouettes
TTITLE1=Elvis Costello and Allen Toussaint - The River in Reverse
TTITLE2=Jef Neve - Nobody is Illegal
TTITLE3=Toots Thielemans and Kenny Werner - Inspiration
TTITLE4=Nils Petter Molvaer - Softer
TTITLE5=Tuck and Patti - Wildflower
TTITLE6=Kim - Clap-A Yo Hands
TTITLE7=Christian Scott - Rewind That
TTITLE8=Kurt Elling - Tight
TTITLE9=David Sandborn - Senor Blues
TTITLE10=Dee Dee Bridgewater - Afro Blue
TTITLE11=Jane Monheit - So Tinha de ser Com Voce
EXTD=YEAR: 2007
EXTT0=
EXTT1=
EXTT2=
EXTT3=
EXTT4=
EXTT5=
EXTT6=
EXTT7=
EXTT8=
EXTT9=
EXTT10=
EXTT11=
PLAYORDER=
